# xmcd
# 
# Track frame offsets:
#     150
#     8072
#     56870
#     68870
#     81120
#     119665
#     155515
#     260570
# 
# Disc length: 3663
# 
# Revision: 1
# Processed by: cddbd v1.5.2PL0 Copyright (c) Steve Scherf et al.
# Submitted via: BonkEnc v1.0
# 
DISCID=6c0e4d08
DTITLE=avex-CLASSICS - 100 CLASSICS [CD 10] オーケストラ・ベスト！
DYEAR=2005
DGENRE=Classical
TTITLE0=《展覧会の絵》 より 〈プロムナード〉 （ムソルグスキー）
TTITLE1=交響曲 第4番 《イタリア》 第1楽章 （メンデルスゾーン）
TTITLE2=バレエ 《白鳥の湖》 より 〈情景〉 （チャイコフスキー）
TTITLE3=《カルミナ・ブラーナ》 より 『おお，運命の女神よ』 （オルフ）
TTITLE4=スケーターズ・ワルツ （ワルトトイフェル）
TTITLE5=組曲 《惑星》 より 〈木星（ジュピター）〉 （ホルスト）
TTITLE6=交響曲 第9番 《合唱》 第4楽章 （ベートーヴェン）
TTITLE7=ラデツキー行進曲 （J.シュトラウスI）
EXTD=YEAR: 2005
EXTT0=
EXTT1=
EXTT2=
EXTT3=
EXTT4=
EXTT5=
EXTT6=
EXTT7=
PLAYORDER=
